<mxfile host="app.diagrams.net" modified="2020-08-04T13:09:21.232Z" agent="5.0 (Windows NT 10.0; Win64; x64) AppleWebKit/537.36 (KHTML, like Gecko) Chrome/84.0.4147.105 Safari/537.36" etag="kTIxJt3MZdgp7alUAzaY" version="13.5.9" type="github">
  <diagram id="1X3NGyKR1r7PTU8iHD2X" name="Page-1">
    <mxGraphModel dx="2272" dy="794" grid="1" gridSize="10" guides="1" tooltips="1" connect="1" arrows="1" fold="1" page="1" pageScale="1" pageWidth="850" pageHeight="1100" math="0" shadow="0">
      <root>
        <mxCell id="0" />
        <mxCell id="1" parent="0" />
        <mxCell id="1tJ0hKaxnlsRvryn8O6b-30" value="" style="rounded=0;whiteSpace=wrap;html=1;" vertex="1" parent="1">
          <mxGeometry x="170" y="150" width="520" height="510" as="geometry" />
        </mxCell>
        <mxCell id="1tJ0hKaxnlsRvryn8O6b-22" value="" style="ellipse;whiteSpace=wrap;html=1;" vertex="1" parent="1">
          <mxGeometry x="-451.25" y="160" width="487.5" height="462.22" as="geometry" />
        </mxCell>
        <mxCell id="1tJ0hKaxnlsRvryn8O6b-1" value="&lt;b&gt;&lt;font style=&quot;font-size: 22px&quot;&gt;Forum Komunikasi Alumni&lt;br&gt;&amp;nbsp;Imapress Wonogiri&lt;/font&gt;&lt;/b&gt;" style="text;html=1;strokeColor=none;fillColor=none;align=center;verticalAlign=middle;whiteSpace=wrap;rounded=0;" vertex="1" parent="1">
          <mxGeometry x="-400" y="260" width="385" height="60" as="geometry" />
        </mxCell>
        <mxCell id="1tJ0hKaxnlsRvryn8O6b-4" style="edgeStyle=orthogonalEdgeStyle;rounded=0;orthogonalLoop=1;jettySize=auto;html=1;exitX=0.5;exitY=1;exitDx=0;exitDy=0;" edge="1" parent="1" source="1tJ0hKaxnlsRvryn8O6b-2" target="1tJ0hKaxnlsRvryn8O6b-3">
          <mxGeometry relative="1" as="geometry" />
        </mxCell>
        <mxCell id="1tJ0hKaxnlsRvryn8O6b-2" value="Mahasiswa Berprestasi Wonogiri" style="rounded=0;whiteSpace=wrap;html=1;fillColor=#f8cecc;strokeColor=#b85450;" vertex="1" parent="1">
          <mxGeometry x="360" y="260" width="120" height="60" as="geometry" />
        </mxCell>
        <mxCell id="1tJ0hKaxnlsRvryn8O6b-6" style="edgeStyle=orthogonalEdgeStyle;rounded=0;orthogonalLoop=1;jettySize=auto;html=1;exitX=0.5;exitY=1;exitDx=0;exitDy=0;" edge="1" parent="1" source="1tJ0hKaxnlsRvryn8O6b-3" target="1tJ0hKaxnlsRvryn8O6b-5">
          <mxGeometry relative="1" as="geometry" />
        </mxCell>
        <mxCell id="1tJ0hKaxnlsRvryn8O6b-8" style="edgeStyle=orthogonalEdgeStyle;rounded=0;orthogonalLoop=1;jettySize=auto;html=1;exitX=0.5;exitY=1;exitDx=0;exitDy=0;" edge="1" parent="1" source="1tJ0hKaxnlsRvryn8O6b-3" target="1tJ0hKaxnlsRvryn8O6b-7">
          <mxGeometry relative="1" as="geometry" />
        </mxCell>
        <mxCell id="1tJ0hKaxnlsRvryn8O6b-3" value="Lulus" style="rounded=0;whiteSpace=wrap;html=1;" vertex="1" parent="1">
          <mxGeometry x="360" y="350" width="120" height="60" as="geometry" />
        </mxCell>
        <mxCell id="1tJ0hKaxnlsRvryn8O6b-5" value="Pembinaan Persiapan Kerja" style="rounded=0;whiteSpace=wrap;html=1;" vertex="1" parent="1">
          <mxGeometry x="240" y="470" width="120" height="60" as="geometry" />
        </mxCell>
        <mxCell id="1tJ0hKaxnlsRvryn8O6b-7" value="Pembinaan Membuat Usaha" style="rounded=0;whiteSpace=wrap;html=1;" vertex="1" parent="1">
          <mxGeometry x="480" y="470" width="120" height="60" as="geometry" />
        </mxCell>
        <mxCell id="1tJ0hKaxnlsRvryn8O6b-9" value="Ingin Bekerja&amp;nbsp;" style="text;html=1;strokeColor=none;fillColor=none;align=center;verticalAlign=middle;whiteSpace=wrap;rounded=0;" vertex="1" parent="1">
          <mxGeometry x="260" y="410" width="80" height="20" as="geometry" />
        </mxCell>
        <mxCell id="1tJ0hKaxnlsRvryn8O6b-10" value="Ingin Memulai Usaha" style="text;html=1;strokeColor=none;fillColor=none;align=center;verticalAlign=middle;whiteSpace=wrap;rounded=0;" vertex="1" parent="1">
          <mxGeometry x="490" y="410" width="120" height="20" as="geometry" />
        </mxCell>
        <mxCell id="1tJ0hKaxnlsRvryn8O6b-11" style="edgeStyle=orthogonalEdgeStyle;rounded=0;orthogonalLoop=1;jettySize=auto;html=1;exitX=0.5;exitY=1;exitDx=0;exitDy=0;" edge="1" parent="1" source="1tJ0hKaxnlsRvryn8O6b-9" target="1tJ0hKaxnlsRvryn8O6b-9">
          <mxGeometry relative="1" as="geometry" />
        </mxCell>
        <mxCell id="1tJ0hKaxnlsRvryn8O6b-12" value="&lt;ul&gt;&lt;li&gt;Forum Loker&lt;/li&gt;&lt;li&gt;Pembinaan Pra Kerja&lt;/li&gt;&lt;li&gt;Pelatihan Terkait Talenta yang Dibutuhakan Industri&lt;/li&gt;&lt;/ul&gt;" style="text;html=1;strokeColor=none;fillColor=none;align=left;verticalAlign=middle;whiteSpace=wrap;rounded=0;" vertex="1" parent="1">
          <mxGeometry x="220" y="540" width="220" height="70" as="geometry" />
        </mxCell>
        <mxCell id="1tJ0hKaxnlsRvryn8O6b-13" value="&lt;ul&gt;&lt;li&gt;Mentoring&lt;/li&gt;&lt;li&gt;Pembinaan Usaha&lt;/li&gt;&lt;li&gt;Inkubator Bisnis/ Akselerator&lt;/li&gt;&lt;/ul&gt;" style="text;html=1;strokeColor=none;fillColor=none;align=left;verticalAlign=middle;whiteSpace=wrap;rounded=0;" vertex="1" parent="1">
          <mxGeometry x="460" y="530" width="220" height="70" as="geometry" />
        </mxCell>
        <mxCell id="1tJ0hKaxnlsRvryn8O6b-21" value="Mahasiswa Berprestasi Wonogiri" style="rounded=0;whiteSpace=wrap;html=1;" vertex="1" parent="1">
          <mxGeometry x="-370" y="352.22" width="120" height="60" as="geometry" />
        </mxCell>
        <mxCell id="1tJ0hKaxnlsRvryn8O6b-23" value="Mahasiswa Berprestasi yang Sudah Lulus" style="rounded=0;whiteSpace=wrap;html=1;" vertex="1" parent="1">
          <mxGeometry x="-147.5" y="352.22" width="120" height="60" as="geometry" />
        </mxCell>
        <mxCell id="1tJ0hKaxnlsRvryn8O6b-24" value="Stakeholder Terkait" style="rounded=0;whiteSpace=wrap;html=1;" vertex="1" parent="1">
          <mxGeometry x="-267.5" y="470" width="120" height="60" as="geometry" />
        </mxCell>
        <mxCell id="1tJ0hKaxnlsRvryn8O6b-29" value="&lt;span style=&quot;font-size: 22px&quot;&gt;&lt;b&gt;Alur Pembinaan&lt;/b&gt;&lt;/span&gt;" style="text;html=1;strokeColor=none;fillColor=none;align=center;verticalAlign=middle;whiteSpace=wrap;rounded=0;" vertex="1" parent="1">
          <mxGeometry x="237.5" y="190" width="385" height="60" as="geometry" />
        </mxCell>
      </root>
    </mxGraphModel>
  </diagram>
</mxfile>
